# Tiled2Unity generated file. Do not modify by hand.
# Wavefront file for 'Level_2_mesh_0007.obj'

# Vertices (Count = 120)
v -176 -80 0
v -192 -80 0
v -192 -64 0
v -176 -64 0
v -368 -96 0
v -384 -96 0
v -384 -80 0
v -368 -80 0
v -64 -96 0
v -80 -96 0
v -80 -80 0
v -64 -80 0
v -352 -256 0
v -368 -256 0
v -368 -240 0
v -352 -240 0
v -176 -256 0
v -192 -256 0
v -192 -240 0
v -176 -240 0
v -16 -256 0
v -32 -256 0
v -32 -240 0
v -16 -240 0
v -560 -400 0
v -576 -400 0
v -576 -384 0
v -560 -384 0
v -544 -400 0
v -560 -400 0
v -560 -384 0
v -544 -384 0
v -528 -400 0
v -544 -400 0
v -544 -384 0
v -528 -384 0
v -512 -400 0
v -528 -400 0
v -528 -384 0
v -512 -384 0
v -560 -416 0
v -576 -416 0
v -576 -400 0
v -560 -400 0
v -512 -416 0
v -528 -416 0
v -528 -400 0
v -512 -400 0
v -400 -416 0
v -416 -416 0
v -416 -400 0
v -400 -400 0
v -176 -416 0
v -192 -416 0
v -192 -400 0
v -176 -400 0
v -560 -432 0
v -576 -432 0
v -576 -416 0
v -560 -416 0
v -512 -432 0
v -528 -432 0
v -528 -416 0
v -512 -416 0
v -16 -432 0
v -32 -432 0
v -32 -416 0
v -16 -416 0
v -560 -448 0
v -576 -448 0
v -576 -432 0
v -560 -432 0
v -544 -448 0
v -560 -448 0
v -560 -432 0
v -544 -432 0
v -512 -448 0
v -528 -448 0
v -528 -432 0
v -512 -432 0
v -608 -480 0
v -624 -480 0
v -624 -464 0
v -608 -464 0
v -496 -480 0
v -512 -480 0
v -512 -464 0
v -496 -464 0
v -464 -480 0
v -480 -480 0
v -480 -464 0
v -464 -464 0
v -544 -544 0
v -560 -544 0
v -560 -528 0
v -544 -528 0
v -480 -544 0
v -496 -544 0
v -496 -528 0
v -480 -528 0
v -352 -560 0
v -368 -560 0
v -368 -544 0
v -352 -544 0
v -192 -560 0
v -208 -560 0
v -208 -544 0
v -192 -544 0
v -544 -576 0
v -560 -576 0
v -560 -560 0
v -544 -560 0
v -480 -576 0
v -496 -576 0
v -496 -560 0
v -480 -560 0
v -48 -576 0
v -64 -576 0
v -64 -560 0
v -48 -560 0

# Texture cooridinates (Count = 52)
vt 0.8254132 0.4847909
vt 0.8419421 0.4847909
vt 0.8419421 0.5152091
vt 0.8254132 0.5152091
vt 0.7200413 0.5171102
vt 0.7365702 0.5171102
vt 0.7365702 0.5475285
vt 0.7200413 0.5475285
vt 0.7376033 0.3878327
vt 0.7541322 0.3878327
vt 0.7541322 0.418251
vt 0.7376033 0.418251
vt 0.7551653 0.3878327
vt 0.7716942 0.3878327
vt 0.7716942 0.418251
vt 0.7551653 0.418251
vt 0.7200413 0.3878327
vt 0.7365702 0.3878327
vt 0.7365702 0.418251
vt 0.7200413 0.418251
vt 0.7551653 0.3555133
vt 0.7716942 0.3555133
vt 0.7716942 0.3859316
vt 0.7551653 0.3859316
vt 0.7376033 0.3555133
vt 0.7541322 0.3555133
vt 0.7541322 0.3859316
vt 0.7376033 0.3859316
vt 0.8780992 0.3878327
vt 0.8946281 0.3878327
vt 0.8946281 0.418251
vt 0.8780992 0.418251
vt 0.7200413 0.3555133
vt 0.7365702 0.3555133
vt 0.7365702 0.3859316
vt 0.7200413 0.3859316
vt 0.7376033 0.5494297
vt 0.7541322 0.5494297
vt 0.7541322 0.5798479
vt 0.7376033 0.5798479
vt 0.3336777 0.743346
vt 0.3502066 0.743346
vt 0.3502066 0.7737643
vt 0.3336777 0.7737643
vt 0.9834711 0.5171102
vt 1 0.5171102
vt 1 0.5475285
vt 0.9834711 0.5475285
vt 0.7551653 0.4847909
vt 0.7716942 0.4847909
vt 0.7716942 0.5152091
vt 0.7551653 0.5152091

# Normal
vn 0 0 -1

# Mesh description
g Level_2_mesh_0007

# Faces
f 1/1/1 2/2/1 3/3/1 4/4/1
f 5/1/1 6/2/1 7/3/1 8/4/1
f 9/5/1 10/6/1 11/7/1 12/8/1
f 13/1/1 14/2/1 15/3/1 16/4/1
f 17/1/1 18/2/1 19/3/1 20/4/1
f 21/1/1 22/2/1 23/3/1 24/4/1
f 25/9/1 26/10/1 27/11/1 28/12/1
f 29/13/1 30/14/1 31/15/1 32/16/1
f 33/13/1 34/14/1 35/15/1 36/16/1
f 37/17/1 38/18/1 39/19/1 40/20/1
f 41/21/1 42/22/1 43/23/1 44/24/1
f 45/21/1 46/22/1 47/23/1 48/24/1
f 49/1/1 50/2/1 51/3/1 52/4/1
f 53/1/1 54/2/1 55/3/1 56/4/1
f 57/21/1 58/22/1 59/23/1 60/24/1
f 61/21/1 62/22/1 63/23/1 64/24/1
f 65/1/1 66/2/1 67/3/1 68/4/1
f 69/25/1 70/26/1 71/27/1 72/28/1
f 73/29/1 74/30/1 75/31/1 76/32/1
f 77/33/1 78/34/1 79/35/1 80/36/1
f 81/37/1 82/38/1 83/39/1 84/40/1
f 85/5/1 86/6/1 87/7/1 88/8/1
f 89/37/1 90/38/1 91/39/1 92/40/1
f 93/1/1 94/2/1 95/3/1 96/4/1
f 97/41/1 98/42/1 99/43/1 100/44/1
f 101/1/1 102/2/1 103/3/1 104/4/1
f 105/1/1 106/2/1 107/3/1 108/4/1
f 109/45/1 110/46/1 111/47/1 112/48/1
f 113/49/1 114/50/1 115/51/1 116/52/1
f 117/1/1 118/2/1 119/3/1 120/4/1

