# Tiled2Unity generated file. Do not modify by hand.
# Wavefront file for 'Level_2_mesh_0002.obj'

# Vertices (Count = 624)
v -624 -16 0
v -640 -16 0
v -640 0 0
v -624 0 0
v -608 -16 0
v -624 -16 0
v -624 0 0
v -608 0 0
v -592 -16 0
v -608 -16 0
v -608 0 0
v -592 0 0
v -576 -16 0
v -592 -16 0
v -592 0 0
v -576 0 0
v -560 -16 0
v -576 -16 0
v -576 0 0
v -560 0 0
v -544 -16 0
v -560 -16 0
v -560 0 0
v -544 0 0
v -528 -16 0
v -544 -16 0
v -544 0 0
v -528 0 0
v -512 -16 0
v -528 -16 0
v -528 0 0
v -512 0 0
v -496 -16 0
v -512 -16 0
v -512 0 0
v -496 0 0
v -480 -16 0
v -496 -16 0
v -496 0 0
v -480 0 0
v -464 -16 0
v -480 -16 0
v -480 0 0
v -464 0 0
v -448 -16 0
v -464 -16 0
v -464 0 0
v -448 0 0
v -432 -16 0
v -448 -16 0
v -448 0 0
v -432 0 0
v -416 -16 0
v -432 -16 0
v -432 0 0
v -416 0 0
v -400 -16 0
v -416 -16 0
v -416 0 0
v -400 0 0
v -384 -16 0
v -400 -16 0
v -400 0 0
v -384 0 0
v -368 -16 0
v -384 -16 0
v -384 0 0
v -368 0 0
v -352 -16 0
v -368 -16 0
v -368 0 0
v -352 0 0
v -336 -16 0
v -352 -16 0
v -352 0 0
v -336 0 0
v -320 -16 0
v -336 -16 0
v -336 0 0
v -320 0 0
v -304 -16 0
v -320 -16 0
v -320 0 0
v -304 0 0
v -288 -16 0
v -304 -16 0
v -304 0 0
v -288 0 0
v -272 -16 0
v -288 -16 0
v -288 0 0
v -272 0 0
v -256 -16 0
v -272 -16 0
v -272 0 0
v -256 0 0
v -240 -16 0
v -256 -16 0
v -256 0 0
v -240 0 0
v -224 -16 0
v -240 -16 0
v -240 0 0
v -224 0 0
v -208 -16 0
v -224 -16 0
v -224 0 0
v -208 0 0
v -192 -16 0
v -208 -16 0
v -208 0 0
v -192 0 0
v -176 -16 0
v -192 -16 0
v -192 0 0
v -176 0 0
v -160 -16 0
v -176 -16 0
v -176 0 0
v -160 0 0
v -144 -16 0
v -160 -16 0
v -160 0 0
v -144 0 0
v -128 -16 0
v -144 -16 0
v -144 0 0
v -128 0 0
v -112 -16 0
v -128 -16 0
v -128 0 0
v -112 0 0
v -96 -16 0
v -112 -16 0
v -112 0 0
v -96 0 0
v -80 -16 0
v -96 -16 0
v -96 0 0
v -80 0 0
v -64 -16 0
v -80 -16 0
v -80 0 0
v -64 0 0
v -48 -16 0
v -64 -16 0
v -64 0 0
v -48 0 0
v -32 -16 0
v -48 -16 0
v -48 0 0
v -32 0 0
v -16 -16 0
v -32 -16 0
v -32 0 0
v -16 0 0
v 0 -16 0
v -16 -16 0
v -16 0 0
v 0 0 0
v -624 -32 0
v -640 -32 0
v -640 -16 0
v -624 -16 0
v 0 -32 0
v -16 -32 0
v -16 -16 0
v 0 -16 0
v -624 -48 0
v -640 -48 0
v -640 -32 0
v -624 -32 0
v 0 -48 0
v -16 -48 0
v -16 -32 0
v 0 -32 0
v -624 -64 0
v -640 -64 0
v -640 -48 0
v -624 -48 0
v 0 -64 0
v -16 -64 0
v -16 -48 0
v 0 -48 0
v -624 -80 0
v -640 -80 0
v -640 -64 0
v -624 -64 0
v 0 -80 0
v -16 -80 0
v -16 -64 0
v 0 -64 0
v -624 -96 0
v -640 -96 0
v -640 -80 0
v -624 -80 0
v 0 -96 0
v -16 -96 0
v -16 -80 0
v 0 -80 0
v -624 -112 0
v -640 -112 0
v -640 -96 0
v -624 -96 0
v 0 -112 0
v -16 -112 0
v -16 -96 0
v 0 -96 0
v -624 -128 0
v -640 -128 0
v -640 -112 0
v -624 -112 0
v 0 -128 0
v -16 -128 0
v -16 -112 0
v 0 -112 0
v -624 -144 0
v -640 -144 0
v -640 -128 0
v -624 -128 0
v 0 -144 0
v -16 -144 0
v -16 -128 0
v 0 -128 0
v -624 -160 0
v -640 -160 0
v -640 -144 0
v -624 -144 0
v 0 -160 0
v -16 -160 0
v -16 -144 0
v 0 -144 0
v -624 -176 0
v -640 -176 0
v -640 -160 0
v -624 -160 0
v 0 -176 0
v -16 -176 0
v -16 -160 0
v 0 -160 0
v -624 -192 0
v -640 -192 0
v -640 -176 0
v -624 -176 0
v 0 -192 0
v -16 -192 0
v -16 -176 0
v 0 -176 0
v -624 -208 0
v -640 -208 0
v -640 -192 0
v -624 -192 0
v 0 -208 0
v -16 -208 0
v -16 -192 0
v 0 -192 0
v -624 -224 0
v -640 -224 0
v -640 -208 0
v -624 -208 0
v 0 -224 0
v -16 -224 0
v -16 -208 0
v 0 -208 0
v -624 -240 0
v -640 -240 0
v -640 -224 0
v -624 -224 0
v 0 -240 0
v -16 -240 0
v -16 -224 0
v 0 -224 0
v -624 -256 0
v -640 -256 0
v -640 -240 0
v -624 -240 0
v 0 -256 0
v -16 -256 0
v -16 -240 0
v 0 -240 0
v -624 -272 0
v -640 -272 0
v -640 -256 0
v -624 -256 0
v 0 -272 0
v -16 -272 0
v -16 -256 0
v 0 -256 0
v -624 -288 0
v -640 -288 0
v -640 -272 0
v -624 -272 0
v 0 -288 0
v -16 -288 0
v -16 -272 0
v 0 -272 0
v -624 -304 0
v -640 -304 0
v -640 -288 0
v -624 -288 0
v 0 -304 0
v -16 -304 0
v -16 -288 0
v 0 -288 0
v -624 -320 0
v -640 -320 0
v -640 -304 0
v -624 -304 0
v 0 -320 0
v -16 -320 0
v -16 -304 0
v 0 -304 0
v -624 -336 0
v -640 -336 0
v -640 -320 0
v -624 -320 0
v 0 -336 0
v -16 -336 0
v -16 -320 0
v 0 -320 0
v -624 -352 0
v -640 -352 0
v -640 -336 0
v -624 -336 0
v 0 -352 0
v -16 -352 0
v -16 -336 0
v 0 -336 0
v -624 -368 0
v -640 -368 0
v -640 -352 0
v -624 -352 0
v 0 -368 0
v -16 -368 0
v -16 -352 0
v 0 -352 0
v -624 -384 0
v -640 -384 0
v -640 -368 0
v -624 -368 0
v 0 -384 0
v -16 -384 0
v -16 -368 0
v 0 -368 0
v -624 -400 0
v -640 -400 0
v -640 -384 0
v -624 -384 0
v 0 -400 0
v -16 -400 0
v -16 -384 0
v 0 -384 0
v -624 -416 0
v -640 -416 0
v -640 -400 0
v -624 -400 0
v 0 -416 0
v -16 -416 0
v -16 -400 0
v 0 -400 0
v -624 -432 0
v -640 -432 0
v -640 -416 0
v -624 -416 0
v 0 -432 0
v -16 -432 0
v -16 -416 0
v 0 -416 0
v -624 -448 0
v -640 -448 0
v -640 -432 0
v -624 -432 0
v 0 -448 0
v -16 -448 0
v -16 -432 0
v 0 -432 0
v -624 -464 0
v -640 -464 0
v -640 -448 0
v -624 -448 0
v 0 -464 0
v -16 -464 0
v -16 -448 0
v 0 -448 0
v -624 -480 0
v -640 -480 0
v -640 -464 0
v -624 -464 0
v 0 -480 0
v -16 -480 0
v -16 -464 0
v 0 -464 0
v -624 -496 0
v -640 -496 0
v -640 -480 0
v -624 -480 0
v 0 -496 0
v -16 -496 0
v -16 -480 0
v 0 -480 0
v -624 -512 0
v -640 -512 0
v -640 -496 0
v -624 -496 0
v 0 -512 0
v -16 -512 0
v -16 -496 0
v 0 -496 0
v -624 -528 0
v -640 -528 0
v -640 -512 0
v -624 -512 0
v 0 -528 0
v -16 -528 0
v -16 -512 0
v 0 -512 0
v -624 -544 0
v -640 -544 0
v -640 -528 0
v -624 -528 0
v 0 -544 0
v -16 -544 0
v -16 -528 0
v 0 -528 0
v -624 -560 0
v -640 -560 0
v -640 -544 0
v -624 -544 0
v 0 -560 0
v -16 -560 0
v -16 -544 0
v 0 -544 0
v -624 -576 0
v -640 -576 0
v -640 -560 0
v -624 -560 0
v 0 -576 0
v -16 -576 0
v -16 -560 0
v 0 -560 0
v -624 -592 0
v -640 -592 0
v -640 -576 0
v -624 -576 0
v 0 -592 0
v -16 -592 0
v -16 -576 0
v 0 -576 0
v -624 -608 0
v -640 -608 0
v -640 -592 0
v -624 -592 0
v 0 -608 0
v -16 -608 0
v -16 -592 0
v 0 -592 0
v -624 -624 0
v -640 -624 0
v -640 -608 0
v -624 -608 0
v 0 -624 0
v -16 -624 0
v -16 -608 0
v 0 -608 0
v -624 -640 0
v -640 -640 0
v -640 -624 0
v -624 -624 0
v -608 -640 0
v -624 -640 0
v -624 -624 0
v -608 -624 0
v -592 -640 0
v -608 -640 0
v -608 -624 0
v -592 -624 0
v -576 -640 0
v -592 -640 0
v -592 -624 0
v -576 -624 0
v -560 -640 0
v -576 -640 0
v -576 -624 0
v -560 -624 0
v -544 -640 0
v -560 -640 0
v -560 -624 0
v -544 -624 0
v -528 -640 0
v -544 -640 0
v -544 -624 0
v -528 -624 0
v -512 -640 0
v -528 -640 0
v -528 -624 0
v -512 -624 0
v -496 -640 0
v -512 -640 0
v -512 -624 0
v -496 -624 0
v -480 -640 0
v -496 -640 0
v -496 -624 0
v -480 -624 0
v -464 -640 0
v -480 -640 0
v -480 -624 0
v -464 -624 0
v -448 -640 0
v -464 -640 0
v -464 -624 0
v -448 -624 0
v -432 -640 0
v -448 -640 0
v -448 -624 0
v -432 -624 0
v -416 -640 0
v -432 -640 0
v -432 -624 0
v -416 -624 0
v -400 -640 0
v -416 -640 0
v -416 -624 0
v -400 -624 0
v -384 -640 0
v -400 -640 0
v -400 -624 0
v -384 -624 0
v -368 -640 0
v -384 -640 0
v -384 -624 0
v -368 -624 0
v -352 -640 0
v -368 -640 0
v -368 -624 0
v -352 -624 0
v -336 -640 0
v -352 -640 0
v -352 -624 0
v -336 -624 0
v -320 -640 0
v -336 -640 0
v -336 -624 0
v -320 -624 0
v -304 -640 0
v -320 -640 0
v -320 -624 0
v -304 -624 0
v -288 -640 0
v -304 -640 0
v -304 -624 0
v -288 -624 0
v -272 -640 0
v -288 -640 0
v -288 -624 0
v -272 -624 0
v -256 -640 0
v -272 -640 0
v -272 -624 0
v -256 -624 0
v -240 -640 0
v -256 -640 0
v -256 -624 0
v -240 -624 0
v -224 -640 0
v -240 -640 0
v -240 -624 0
v -224 -624 0
v -208 -640 0
v -224 -640 0
v -224 -624 0
v -208 -624 0
v -192 -640 0
v -208 -640 0
v -208 -624 0
v -192 -624 0
v -176 -640 0
v -192 -640 0
v -192 -624 0
v -176 -624 0
v -160 -640 0
v -176 -640 0
v -176 -624 0
v -160 -624 0
v -144 -640 0
v -160 -640 0
v -160 -624 0
v -144 -624 0
v -128 -640 0
v -144 -640 0
v -144 -624 0
v -128 -624 0
v -112 -640 0
v -128 -640 0
v -128 -624 0
v -112 -624 0
v -96 -640 0
v -112 -640 0
v -112 -624 0
v -96 -624 0
v -80 -640 0
v -96 -640 0
v -96 -624 0
v -80 -624 0
v -64 -640 0
v -80 -640 0
v -80 -624 0
v -64 -624 0
v -48 -640 0
v -64 -640 0
v -64 -624 0
v -48 -624 0
v -32 -640 0
v -48 -640 0
v -48 -624 0
v -32 -624 0
v -16 -640 0
v -32 -640 0
v -32 -624 0
v -16 -624 0
v 0 -640 0
v -16 -640 0
v -16 -624 0
v 0 -624 0

# Texture cooridinates (Count = 28)
vt 0.6565041 0.947541
vt 0.6890244 0.947541
vt 0.6890244 1
vt 0.6565041 1
vt 0.6219512 0.947541
vt 0.6544715 0.947541
vt 0.6544715 1
vt 0.6219512 1
vt 0.5873984 0.947541
vt 0.6199187 0.947541
vt 0.6199187 1
vt 0.5873984 1
vt 0.6565041 0.8918033
vt 0.6890244 0.8918033
vt 0.6890244 0.9442623
vt 0.6565041 0.9442623
vt 0.5873984 0.8918033
vt 0.6199187 0.8918033
vt 0.6199187 0.9442623
vt 0.5873984 0.9442623
vt 0.6565041 0.8360656
vt 0.6890244 0.8360656
vt 0.6890244 0.8885246
vt 0.6565041 0.8885246
vt 0.5873984 0.8360656
vt 0.6199187 0.8360656
vt 0.6199187 0.8885246
vt 0.5873984 0.8885246

# Normal
vn 0 0 -1

# Mesh description
g Level_2_mesh_0002

# Faces
f 1/1/1 2/2/1 3/3/1 4/4/1
f 5/5/1 6/6/1 7/7/1 8/8/1
f 9/5/1 10/6/1 11/7/1 12/8/1
f 13/5/1 14/6/1 15/7/1 16/8/1
f 17/5/1 18/6/1 19/7/1 20/8/1
f 21/5/1 22/6/1 23/7/1 24/8/1
f 25/5/1 26/6/1 27/7/1 28/8/1
f 29/5/1 30/6/1 31/7/1 32/8/1
f 33/5/1 34/6/1 35/7/1 36/8/1
f 37/5/1 38/6/1 39/7/1 40/8/1
f 41/5/1 42/6/1 43/7/1 44/8/1
f 45/5/1 46/6/1 47/7/1 48/8/1
f 49/5/1 50/6/1 51/7/1 52/8/1
f 53/5/1 54/6/1 55/7/1 56/8/1
f 57/5/1 58/6/1 59/7/1 60/8/1
f 61/5/1 62/6/1 63/7/1 64/8/1
f 65/5/1 66/6/1 67/7/1 68/8/1
f 69/5/1 70/6/1 71/7/1 72/8/1
f 73/5/1 74/6/1 75/7/1 76/8/1
f 77/5/1 78/6/1 79/7/1 80/8/1
f 81/5/1 82/6/1 83/7/1 84/8/1
f 85/5/1 86/6/1 87/7/1 88/8/1
f 89/5/1 90/6/1 91/7/1 92/8/1
f 93/5/1 94/6/1 95/7/1 96/8/1
f 97/5/1 98/6/1 99/7/1 100/8/1
f 101/5/1 102/6/1 103/7/1 104/8/1
f 105/5/1 106/6/1 107/7/1 108/8/1
f 109/5/1 110/6/1 111/7/1 112/8/1
f 113/5/1 114/6/1 115/7/1 116/8/1
f 117/5/1 118/6/1 119/7/1 120/8/1
f 121/5/1 122/6/1 123/7/1 124/8/1
f 125/5/1 126/6/1 127/7/1 128/8/1
f 129/5/1 130/6/1 131/7/1 132/8/1
f 133/5/1 134/6/1 135/7/1 136/8/1
f 137/5/1 138/6/1 139/7/1 140/8/1
f 141/5/1 142/6/1 143/7/1 144/8/1
f 145/5/1 146/6/1 147/7/1 148/8/1
f 149/5/1 150/6/1 151/7/1 152/8/1
f 153/5/1 154/6/1 155/7/1 156/8/1
f 157/9/1 158/10/1 159/11/1 160/12/1
f 161/13/1 162/14/1 163/15/1 164/16/1
f 165/17/1 166/18/1 167/19/1 168/20/1
f 169/13/1 170/14/1 171/15/1 172/16/1
f 173/17/1 174/18/1 175/19/1 176/20/1
f 177/13/1 178/14/1 179/15/1 180/16/1
f 181/17/1 182/18/1 183/19/1 184/20/1
f 185/13/1 186/14/1 187/15/1 188/16/1
f 189/17/1 190/18/1 191/19/1 192/20/1
f 193/13/1 194/14/1 195/15/1 196/16/1
f 197/17/1 198/18/1 199/19/1 200/20/1
f 201/13/1 202/14/1 203/15/1 204/16/1
f 205/17/1 206/18/1 207/19/1 208/20/1
f 209/13/1 210/14/1 211/15/1 212/16/1
f 213/17/1 214/18/1 215/19/1 216/20/1
f 217/13/1 218/14/1 219/15/1 220/16/1
f 221/17/1 222/18/1 223/19/1 224/20/1
f 225/13/1 226/14/1 227/15/1 228/16/1
f 229/17/1 230/18/1 231/19/1 232/20/1
f 233/13/1 234/14/1 235/15/1 236/16/1
f 237/17/1 238/18/1 239/19/1 240/20/1
f 241/13/1 242/14/1 243/15/1 244/16/1
f 245/17/1 246/18/1 247/19/1 248/20/1
f 249/13/1 250/14/1 251/15/1 252/16/1
f 253/17/1 254/18/1 255/19/1 256/20/1
f 257/13/1 258/14/1 259/15/1 260/16/1
f 261/17/1 262/18/1 263/19/1 264/20/1
f 265/13/1 266/14/1 267/15/1 268/16/1
f 269/17/1 270/18/1 271/19/1 272/20/1
f 273/13/1 274/14/1 275/15/1 276/16/1
f 277/17/1 278/18/1 279/19/1 280/20/1
f 281/13/1 282/14/1 283/15/1 284/16/1
f 285/17/1 286/18/1 287/19/1 288/20/1
f 289/13/1 290/14/1 291/15/1 292/16/1
f 293/17/1 294/18/1 295/19/1 296/20/1
f 297/13/1 298/14/1 299/15/1 300/16/1
f 301/17/1 302/18/1 303/19/1 304/20/1
f 305/13/1 306/14/1 307/15/1 308/16/1
f 309/17/1 310/18/1 311/19/1 312/20/1
f 313/13/1 314/14/1 315/15/1 316/16/1
f 317/17/1 318/18/1 319/19/1 320/20/1
f 321/13/1 322/14/1 323/15/1 324/16/1
f 325/17/1 326/18/1 327/19/1 328/20/1
f 329/13/1 330/14/1 331/15/1 332/16/1
f 333/17/1 334/18/1 335/19/1 336/20/1
f 337/13/1 338/14/1 339/15/1 340/16/1
f 341/17/1 342/18/1 343/19/1 344/20/1
f 345/13/1 346/14/1 347/15/1 348/16/1
f 349/17/1 350/18/1 351/19/1 352/20/1
f 353/13/1 354/14/1 355/15/1 356/16/1
f 357/17/1 358/18/1 359/19/1 360/20/1
f 361/13/1 362/14/1 363/15/1 364/16/1
f 365/17/1 366/18/1 367/19/1 368/20/1
f 369/13/1 370/14/1 371/15/1 372/16/1
f 373/17/1 374/18/1 375/19/1 376/20/1
f 377/13/1 378/14/1 379/15/1 380/16/1
f 381/17/1 382/18/1 383/19/1 384/20/1
f 385/13/1 386/14/1 387/15/1 388/16/1
f 389/17/1 390/18/1 391/19/1 392/20/1
f 393/13/1 394/14/1 395/15/1 396/16/1
f 397/17/1 398/18/1 399/19/1 400/20/1
f 401/13/1 402/14/1 403/15/1 404/16/1
f 405/17/1 406/18/1 407/19/1 408/20/1
f 409/13/1 410/14/1 411/15/1 412/16/1
f 413/17/1 414/18/1 415/19/1 416/20/1
f 417/13/1 418/14/1 419/15/1 420/16/1
f 421/17/1 422/18/1 423/19/1 424/20/1
f 425/13/1 426/14/1 427/15/1 428/16/1
f 429/17/1 430/18/1 431/19/1 432/20/1
f 433/13/1 434/14/1 435/15/1 436/16/1
f 437/17/1 438/18/1 439/19/1 440/20/1
f 441/13/1 442/14/1 443/15/1 444/16/1
f 445/17/1 446/18/1 447/19/1 448/20/1
f 449/13/1 450/14/1 451/15/1 452/16/1
f 453/17/1 454/18/1 455/19/1 456/20/1
f 457/13/1 458/14/1 459/15/1 460/16/1
f 461/17/1 462/18/1 463/19/1 464/20/1
f 465/21/1 466/22/1 467/23/1 468/24/1
f 469/5/1 470/6/1 471/7/1 472/8/1
f 473/5/1 474/6/1 475/7/1 476/8/1
f 477/5/1 478/6/1 479/7/1 480/8/1
f 481/5/1 482/6/1 483/7/1 484/8/1
f 485/5/1 486/6/1 487/7/1 488/8/1
f 489/5/1 490/6/1 491/7/1 492/8/1
f 493/5/1 494/6/1 495/7/1 496/8/1
f 497/5/1 498/6/1 499/7/1 500/8/1
f 501/5/1 502/6/1 503/7/1 504/8/1
f 505/5/1 506/6/1 507/7/1 508/8/1
f 509/5/1 510/6/1 511/7/1 512/8/1
f 513/5/1 514/6/1 515/7/1 516/8/1
f 517/5/1 518/6/1 519/7/1 520/8/1
f 521/5/1 522/6/1 523/7/1 524/8/1
f 525/5/1 526/6/1 527/7/1 528/8/1
f 529/5/1 530/6/1 531/7/1 532/8/1
f 533/5/1 534/6/1 535/7/1 536/8/1
f 537/5/1 538/6/1 539/7/1 540/8/1
f 541/5/1 542/6/1 543/7/1 544/8/1
f 545/5/1 546/6/1 547/7/1 548/8/1
f 549/5/1 550/6/1 551/7/1 552/8/1
f 553/5/1 554/6/1 555/7/1 556/8/1
f 557/5/1 558/6/1 559/7/1 560/8/1
f 561/5/1 562/6/1 563/7/1 564/8/1
f 565/5/1 566/6/1 567/7/1 568/8/1
f 569/5/1 570/6/1 571/7/1 572/8/1
f 573/5/1 574/6/1 575/7/1 576/8/1
f 577/5/1 578/6/1 579/7/1 580/8/1
f 581/5/1 582/6/1 583/7/1 584/8/1
f 585/5/1 586/6/1 587/7/1 588/8/1
f 589/5/1 590/6/1 591/7/1 592/8/1
f 593/5/1 594/6/1 595/7/1 596/8/1
f 597/5/1 598/6/1 599/7/1 600/8/1
f 601/5/1 602/6/1 603/7/1 604/8/1
f 605/5/1 606/6/1 607/7/1 608/8/1
f 609/5/1 610/6/1 611/7/1 612/8/1
f 613/5/1 614/6/1 615/7/1 616/8/1
f 617/5/1 618/6/1 619/7/1 620/8/1
f 621/25/1 622/26/1 623/27/1 624/28/1

