# Tiled2Unity generated file. Do not modify by hand.
# Wavefront file for 'Level_1_mesh_0002.obj'

# Vertices (Count = 96)
v -160 -80 0
v -176 -80 0
v -176 -64 0
v -160 -64 0
v -144 -80 0
v -160 -80 0
v -160 -64 0
v -144 -64 0
v -128 -80 0
v -144 -80 0
v -144 -64 0
v -128 -64 0
v -160 -96 0
v -176 -96 0
v -176 -80 0
v -160 -80 0
v -144 -96 0
v -160 -96 0
v -160 -80 0
v -144 -80 0
v -128 -96 0
v -144 -96 0
v -144 -80 0
v -128 -80 0
v -288 -144 0
v -304 -144 0
v -304 -128 0
v -288 -128 0
v -272 -144 0
v -288 -144 0
v -288 -128 0
v -272 -128 0
v -224 -144 0
v -240 -144 0
v -240 -128 0
v -224 -128 0
v -208 -144 0
v -224 -144 0
v -224 -128 0
v -208 -128 0
v -288 -160 0
v -304 -160 0
v -304 -144 0
v -288 -144 0
v -272 -160 0
v -288 -160 0
v -288 -144 0
v -272 -144 0
v -224 -160 0
v -240 -160 0
v -240 -144 0
v -224 -144 0
v -208 -160 0
v -224 -160 0
v -224 -144 0
v -208 -144 0
v -288 -176 0
v -304 -176 0
v -304 -160 0
v -288 -160 0
v -272 -176 0
v -288 -176 0
v -288 -160 0
v -272 -160 0
v -224 -176 0
v -240 -176 0
v -240 -160 0
v -224 -160 0
v -208 -176 0
v -224 -176 0
v -224 -160 0
v -208 -160 0
v -160 -240 0
v -176 -240 0
v -176 -224 0
v -160 -224 0
v -144 -240 0
v -160 -240 0
v -160 -224 0
v -144 -224 0
v -128 -240 0
v -144 -240 0
v -144 -224 0
v -128 -224 0
v -160 -256 0
v -176 -256 0
v -176 -240 0
v -160 -240 0
v -144 -256 0
v -160 -256 0
v -160 -240 0
v -144 -240 0
v -128 -256 0
v -144 -256 0
v -144 -240 0
v -128 -240 0

# Texture cooridinates (Count = 20)
vt 0.68 0.5074627
vt 1 0.5074627
vt 1 0.7462686
vt 0.68 0.7462686
vt 0.34 0.5074627
vt 0.66 0.5074627
vt 0.66 0.7462686
vt 0.34 0.7462686
vt 0 0.5074627
vt 0.32 0.5074627
vt 0.32 0.7462686
vt 0 0.7462686
vt 0.34 0.7611941
vt 0.66 0.7611941
vt 0.66 1
vt 0.34 1
vt 0.34 0.2537314
vt 0.66 0.2537314
vt 0.66 0.4925373
vt 0.34 0.4925373

# Normal
vn 0 0 -1

# Mesh description
g Level_1_mesh_0002

# Faces
f 1/1/1 2/2/1 3/3/1 4/4/1
f 5/5/1 6/6/1 7/7/1 8/8/1
f 9/9/1 10/10/1 11/11/1 12/12/1
f 13/1/1 14/2/1 15/3/1 16/4/1
f 17/5/1 18/6/1 19/7/1 20/8/1
f 21/9/1 22/10/1 23/11/1 24/12/1
f 25/13/1 26/14/1 27/15/1 28/16/1
f 29/13/1 30/14/1 31/15/1 32/16/1
f 33/13/1 34/14/1 35/15/1 36/16/1
f 37/13/1 38/14/1 39/15/1 40/16/1
f 41/5/1 42/6/1 43/7/1 44/8/1
f 45/5/1 46/6/1 47/7/1 48/8/1
f 49/5/1 50/6/1 51/7/1 52/8/1
f 53/5/1 54/6/1 55/7/1 56/8/1
f 57/17/1 58/18/1 59/19/1 60/20/1
f 61/17/1 62/18/1 63/19/1 64/20/1
f 65/17/1 66/18/1 67/19/1 68/20/1
f 69/17/1 70/18/1 71/19/1 72/20/1
f 73/1/1 74/2/1 75/3/1 76/4/1
f 77/5/1 78/6/1 79/7/1 80/8/1
f 81/9/1 82/10/1 83/11/1 84/12/1
f 85/1/1 86/2/1 87/3/1 88/4/1
f 89/5/1 90/6/1 91/7/1 92/8/1
f 93/9/1 94/10/1 95/11/1 96/12/1

