# Tiled2Unity generated file. Do not modify by hand.
# Wavefront file for 'Level_1_mesh_0003.obj'

# Vertices (Count = 720)
v -624 -16 0
v -640 -16 0
v -640 0 0
v -624 0 0
v -608 -16 0
v -624 -16 0
v -624 0 0
v -608 0 0
v -592 -16 0
v -608 -16 0
v -608 0 0
v -592 0 0
v -576 -16 0
v -592 -16 0
v -592 0 0
v -576 0 0
v -560 -16 0
v -576 -16 0
v -576 0 0
v -560 0 0
v -544 -16 0
v -560 -16 0
v -560 0 0
v -544 0 0
v -528 -16 0
v -544 -16 0
v -544 0 0
v -528 0 0
v -512 -16 0
v -528 -16 0
v -528 0 0
v -512 0 0
v -496 -16 0
v -512 -16 0
v -512 0 0
v -496 0 0
v -480 -16 0
v -496 -16 0
v -496 0 0
v -480 0 0
v -464 -16 0
v -480 -16 0
v -480 0 0
v -464 0 0
v -448 -16 0
v -464 -16 0
v -464 0 0
v -448 0 0
v -432 -16 0
v -448 -16 0
v -448 0 0
v -432 0 0
v -416 -16 0
v -432 -16 0
v -432 0 0
v -416 0 0
v -400 -16 0
v -416 -16 0
v -416 0 0
v -400 0 0
v -384 -16 0
v -400 -16 0
v -400 0 0
v -384 0 0
v -368 -16 0
v -384 -16 0
v -384 0 0
v -368 0 0
v -352 -16 0
v -368 -16 0
v -368 0 0
v -352 0 0
v -336 -16 0
v -352 -16 0
v -352 0 0
v -336 0 0
v -320 -16 0
v -336 -16 0
v -336 0 0
v -320 0 0
v -304 -16 0
v -320 -16 0
v -320 0 0
v -304 0 0
v -288 -16 0
v -304 -16 0
v -304 0 0
v -288 0 0
v -272 -16 0
v -288 -16 0
v -288 0 0
v -272 0 0
v -256 -16 0
v -272 -16 0
v -272 0 0
v -256 0 0
v -240 -16 0
v -256 -16 0
v -256 0 0
v -240 0 0
v -224 -16 0
v -240 -16 0
v -240 0 0
v -224 0 0
v -208 -16 0
v -224 -16 0
v -224 0 0
v -208 0 0
v -192 -16 0
v -208 -16 0
v -208 0 0
v -192 0 0
v -176 -16 0
v -192 -16 0
v -192 0 0
v -176 0 0
v -160 -16 0
v -176 -16 0
v -176 0 0
v -160 0 0
v -144 -16 0
v -160 -16 0
v -160 0 0
v -144 0 0
v -128 -16 0
v -144 -16 0
v -144 0 0
v -128 0 0
v -112 -16 0
v -128 -16 0
v -128 0 0
v -112 0 0
v -96 -16 0
v -112 -16 0
v -112 0 0
v -96 0 0
v -80 -16 0
v -96 -16 0
v -96 0 0
v -80 0 0
v -64 -16 0
v -80 -16 0
v -80 0 0
v -64 0 0
v -48 -16 0
v -64 -16 0
v -64 0 0
v -48 0 0
v -32 -16 0
v -48 -16 0
v -48 0 0
v -32 0 0
v -16 -16 0
v -32 -16 0
v -32 0 0
v -16 0 0
v 0 -16 0
v -16 -16 0
v -16 0 0
v 0 0 0
v -624 -32 0
v -640 -32 0
v -640 -16 0
v -624 -16 0
v -320 -32 0
v -336 -32 0
v -336 -16 0
v -320 -16 0
v -288 -32 0
v -304 -32 0
v -304 -16 0
v -288 -16 0
v -256 -32 0
v -272 -32 0
v -272 -16 0
v -256 -16 0
v -240 -32 0
v -256 -32 0
v -256 -16 0
v -240 -16 0
v -192 -32 0
v -208 -32 0
v -208 -16 0
v -192 -16 0
v -64 -32 0
v -80 -32 0
v -80 -16 0
v -64 -16 0
v -16 -32 0
v -32 -32 0
v -32 -16 0
v -16 -16 0
v 0 -32 0
v -16 -32 0
v -16 -16 0
v 0 -16 0
v -624 -48 0
v -640 -48 0
v -640 -32 0
v -624 -32 0
v -432 -48 0
v -448 -48 0
v -448 -32 0
v -432 -32 0
v -400 -48 0
v -416 -48 0
v -416 -32 0
v -400 -32 0
v -352 -48 0
v -368 -48 0
v -368 -32 0
v -352 -32 0
v -320 -48 0
v -336 -48 0
v -336 -32 0
v -320 -32 0
v -240 -48 0
v -256 -48 0
v -256 -32 0
v -240 -32 0
v 0 -48 0
v -16 -48 0
v -16 -32 0
v 0 -32 0
v -624 -64 0
v -640 -64 0
v -640 -48 0
v -624 -48 0
v -320 -64 0
v -336 -64 0
v -336 -48 0
v -320 -48 0
v -240 -64 0
v -256 -64 0
v -256 -48 0
v -240 -48 0
v -192 -64 0
v -208 -64 0
v -208 -48 0
v -192 -48 0
v -176 -64 0
v -192 -64 0
v -192 -48 0
v -176 -48 0
v -96 -64 0
v -112 -64 0
v -112 -48 0
v -96 -48 0
v 0 -64 0
v -16 -64 0
v -16 -48 0
v 0 -48 0
v -624 -80 0
v -640 -80 0
v -640 -64 0
v -624 -64 0
v -416 -80 0
v -432 -80 0
v -432 -64 0
v -416 -64 0
v -352 -80 0
v -368 -80 0
v -368 -64 0
v -352 -64 0
v -320 -80 0
v -336 -80 0
v -336 -64 0
v -320 -64 0
v -240 -80 0
v -256 -80 0
v -256 -64 0
v -240 -64 0
v -16 -80 0
v -32 -80 0
v -32 -64 0
v -16 -64 0
v 0 -80 0
v -16 -80 0
v -16 -64 0
v 0 -64 0
v -624 -96 0
v -640 -96 0
v -640 -80 0
v -624 -80 0
v -320 -96 0
v -336 -96 0
v -336 -80 0
v -320 -80 0
v -256 -96 0
v -272 -96 0
v -272 -80 0
v -256 -80 0
v -240 -96 0
v -256 -96 0
v -256 -80 0
v -240 -80 0
v -208 -96 0
v -224 -96 0
v -224 -80 0
v -208 -80 0
v 0 -96 0
v -16 -96 0
v -16 -80 0
v 0 -80 0
v -624 -112 0
v -640 -112 0
v -640 -96 0
v -624 -96 0
v -432 -112 0
v -448 -112 0
v -448 -96 0
v -432 -96 0
v -352 -112 0
v -368 -112 0
v -368 -96 0
v -352 -96 0
v -320 -112 0
v -336 -112 0
v -336 -96 0
v -320 -96 0
v -240 -112 0
v -256 -112 0
v -256 -96 0
v -240 -96 0
v -96 -112 0
v -112 -112 0
v -112 -96 0
v -96 -96 0
v -32 -112 0
v -48 -112 0
v -48 -96 0
v -32 -96 0
v 0 -112 0
v -16 -112 0
v -16 -96 0
v 0 -96 0
v -624 -128 0
v -640 -128 0
v -640 -112 0
v -624 -112 0
v -320 -128 0
v -336 -128 0
v -336 -112 0
v -320 -112 0
v -240 -128 0
v -256 -128 0
v -256 -112 0
v -240 -112 0
v 0 -128 0
v -16 -128 0
v -16 -112 0
v 0 -112 0
v -624 -144 0
v -640 -144 0
v -640 -128 0
v -624 -128 0
v 0 -144 0
v -16 -144 0
v -16 -128 0
v 0 -128 0
v -624 -160 0
v -640 -160 0
v -640 -144 0
v -624 -144 0
v 0 -160 0
v -16 -160 0
v -16 -144 0
v 0 -144 0
v -624 -176 0
v -640 -176 0
v -640 -160 0
v -624 -160 0
v 0 -176 0
v -16 -176 0
v -16 -160 0
v 0 -160 0
v -624 -192 0
v -640 -192 0
v -640 -176 0
v -624 -176 0
v -560 -192 0
v -576 -192 0
v -576 -176 0
v -560 -176 0
v -224 -192 0
v -240 -192 0
v -240 -176 0
v -224 -176 0
v 0 -192 0
v -16 -192 0
v -16 -176 0
v 0 -176 0
v -624 -208 0
v -640 -208 0
v -640 -192 0
v -624 -192 0
v -480 -208 0
v -496 -208 0
v -496 -192 0
v -480 -192 0
v -368 -208 0
v -384 -208 0
v -384 -192 0
v -368 -192 0
v -288 -208 0
v -304 -208 0
v -304 -192 0
v -288 -192 0
v -272 -208 0
v -288 -208 0
v -288 -192 0
v -272 -192 0
v -208 -208 0
v -224 -208 0
v -224 -192 0
v -208 -192 0
v -80 -208 0
v -96 -208 0
v -96 -192 0
v -80 -192 0
v -16 -208 0
v -32 -208 0
v -32 -192 0
v -16 -192 0
v 0 -208 0
v -16 -208 0
v -16 -192 0
v 0 -192 0
v -624 -224 0
v -640 -224 0
v -640 -208 0
v -624 -208 0
v -528 -224 0
v -544 -224 0
v -544 -208 0
v -528 -208 0
v -496 -224 0
v -512 -224 0
v -512 -208 0
v -496 -208 0
v -480 -224 0
v -496 -224 0
v -496 -208 0
v -480 -208 0
v -464 -224 0
v -480 -224 0
v -480 -208 0
v -464 -208 0
v 0 -224 0
v -16 -224 0
v -16 -208 0
v 0 -208 0
v -624 -240 0
v -640 -240 0
v -640 -224 0
v -624 -224 0
v -544 -240 0
v -560 -240 0
v -560 -224 0
v -544 -224 0
v -352 -240 0
v -368 -240 0
v -368 -224 0
v -352 -224 0
v -336 -240 0
v -352 -240 0
v -352 -224 0
v -336 -224 0
v -304 -240 0
v -320 -240 0
v -320 -224 0
v -304 -224 0
v 0 -240 0
v -16 -240 0
v -16 -224 0
v 0 -224 0
v -624 -256 0
v -640 -256 0
v -640 -240 0
v -624 -240 0
v -544 -256 0
v -560 -256 0
v -560 -240 0
v -544 -240 0
v -528 -256 0
v -544 -256 0
v -544 -240 0
v -528 -240 0
v -464 -256 0
v -480 -256 0
v -480 -240 0
v -464 -240 0
v -352 -256 0
v -368 -256 0
v -368 -240 0
v -352 -240 0
v -272 -256 0
v -288 -256 0
v -288 -240 0
v -272 -240 0
v -32 -256 0
v -48 -256 0
v -48 -240 0
v -32 -240 0
v 0 -256 0
v -16 -256 0
v -16 -240 0
v 0 -240 0
v -624 -272 0
v -640 -272 0
v -640 -256 0
v -624 -256 0
v -256 -272 0
v -272 -272 0
v -272 -256 0
v -256 -256 0
v -208 -272 0
v -224 -272 0
v -224 -256 0
v -208 -256 0
v 0 -272 0
v -16 -272 0
v -16 -256 0
v 0 -256 0
v -624 -288 0
v -640 -288 0
v -640 -272 0
v -624 -272 0
v -544 -288 0
v -560 -288 0
v -560 -272 0
v -544 -272 0
v -496 -288 0
v -512 -288 0
v -512 -272 0
v -496 -272 0
v -480 -288 0
v -496 -288 0
v -496 -272 0
v -480 -272 0
v -80 -288 0
v -96 -288 0
v -96 -272 0
v -80 -272 0
v 0 -288 0
v -16 -288 0
v -16 -272 0
v 0 -272 0
v -624 -304 0
v -640 -304 0
v -640 -288 0
v -624 -288 0
v -336 -304 0
v -352 -304 0
v -352 -288 0
v -336 -288 0
v 0 -304 0
v -16 -304 0
v -16 -288 0
v 0 -288 0
v -624 -320 0
v -640 -320 0
v -640 -304 0
v -624 -304 0
v -608 -320 0
v -624 -320 0
v -624 -304 0
v -608 -304 0
v -592 -320 0
v -608 -320 0
v -608 -304 0
v -592 -304 0
v -576 -320 0
v -592 -320 0
v -592 -304 0
v -576 -304 0
v -560 -320 0
v -576 -320 0
v -576 -304 0
v -560 -304 0
v -544 -320 0
v -560 -320 0
v -560 -304 0
v -544 -304 0
v -528 -320 0
v -544 -320 0
v -544 -304 0
v -528 -304 0
v -512 -320 0
v -528 -320 0
v -528 -304 0
v -512 -304 0
v -496 -320 0
v -512 -320 0
v -512 -304 0
v -496 -304 0
v -480 -320 0
v -496 -320 0
v -496 -304 0
v -480 -304 0
v -464 -320 0
v -480 -320 0
v -480 -304 0
v -464 -304 0
v -448 -320 0
v -464 -320 0
v -464 -304 0
v -448 -304 0
v -432 -320 0
v -448 -320 0
v -448 -304 0
v -432 -304 0
v -416 -320 0
v -432 -320 0
v -432 -304 0
v -416 -304 0
v -400 -320 0
v -416 -320 0
v -416 -304 0
v -400 -304 0
v -384 -320 0
v -400 -320 0
v -400 -304 0
v -384 -304 0
v -368 -320 0
v -384 -320 0
v -384 -304 0
v -368 -304 0
v -352 -320 0
v -368 -320 0
v -368 -304 0
v -352 -304 0
v -336 -320 0
v -352 -320 0
v -352 -304 0
v -336 -304 0
v -320 -320 0
v -336 -320 0
v -336 -304 0
v -320 -304 0
v -304 -320 0
v -320 -320 0
v -320 -304 0
v -304 -304 0
v -288 -320 0
v -304 -320 0
v -304 -304 0
v -288 -304 0
v -272 -320 0
v -288 -320 0
v -288 -304 0
v -272 -304 0
v -256 -320 0
v -272 -320 0
v -272 -304 0
v -256 -304 0
v -240 -320 0
v -256 -320 0
v -256 -304 0
v -240 -304 0
v -224 -320 0
v -240 -320 0
v -240 -304 0
v -224 -304 0
v -208 -320 0
v -224 -320 0
v -224 -304 0
v -208 -304 0
v -192 -320 0
v -208 -320 0
v -208 -304 0
v -192 -304 0
v -176 -320 0
v -192 -320 0
v -192 -304 0
v -176 -304 0
v -160 -320 0
v -176 -320 0
v -176 -304 0
v -160 -304 0
v -144 -320 0
v -160 -320 0
v -160 -304 0
v -144 -304 0
v -128 -320 0
v -144 -320 0
v -144 -304 0
v -128 -304 0
v -112 -320 0
v -128 -320 0
v -128 -304 0
v -112 -304 0
v -96 -320 0
v -112 -320 0
v -112 -304 0
v -96 -304 0
v -80 -320 0
v -96 -320 0
v -96 -304 0
v -80 -304 0
v -64 -320 0
v -80 -320 0
v -80 -304 0
v -64 -304 0
v -48 -320 0
v -64 -320 0
v -64 -304 0
v -48 -304 0
v -32 -320 0
v -48 -320 0
v -48 -304 0
v -32 -304 0
v -16 -320 0
v -32 -320 0
v -32 -304 0
v -16 -304 0
v 0 -320 0
v -16 -320 0
v -16 -304 0
v 0 -304 0

# Texture cooridinates (Count = 112)
vt 0.6565041 0.947541
vt 0.6890244 0.947541
vt 0.6890244 1
vt 0.6565041 1
vt 0.6219512 0.947541
vt 0.6544715 0.947541
vt 0.6544715 1
vt 0.6219512 1
vt 0.6219512 0.7803279
vt 0.6544715 0.7803279
vt 0.6544715 0.8327869
vt 0.6219512 0.8327869
vt 0 0.557377
vt 0.03252032 0.557377
vt 0.03252032 0.6098361
vt 0 0.6098361
vt 0.5873984 0.947541
vt 0.6199187 0.947541
vt 0.6199187 1
vt 0.5873984 1
vt 0.6565041 0.8918033
vt 0.6890244 0.8918033
vt 0.6890244 0.9442623
vt 0.6565041 0.9442623
vt 0.6219512 0.8918033
vt 0.6544715 0.8918033
vt 0.6544715 0.9442623
vt 0.6219512 0.9442623
vt 0.5182927 0
vt 0.550813 0
vt 0.550813 0.052459
vt 0.5182927 0.052459
vt 0.1036585 0.8360656
vt 0.1361789 0.8360656
vt 0.1361789 0.8885246
vt 0.1036585 0.8885246
vt 0 0.7803279
vt 0.03252032 0.7803279
vt 0.03252032 0.8327869
vt 0 0.8327869
vt 0.03455285 0.8360656
vt 0.06707317 0.8360656
vt 0.06707317 0.8885246
vt 0.03455285 0.8885246
vt 0.449187 0
vt 0.4817073 0
vt 0.4817073 0.052459
vt 0.449187 0.052459
vt 0.5873984 0.8918033
vt 0.6199187 0.8918033
vt 0.6199187 0.9442623
vt 0.5873984 0.9442623
vt 0.449187 0.05573773
vt 0.4817073 0.05573773
vt 0.4817073 0.1081967
vt 0.449187 0.1081967
vt 0.449187 0.1114754
vt 0.4817073 0.1114754
vt 0.4817073 0.1639344
vt 0.449187 0.1639344
vt 0.1727642 0.8360656
vt 0.2052846 0.8360656
vt 0.2052846 0.8885246
vt 0.1727642 0.8885246
vt 0.4837398 0.05573773
vt 0.5162601 0.05573773
vt 0.5162601 0.1081967
vt 0.4837398 0.1081967
vt 0.03455285 0.7245902
vt 0.06707317 0.7245902
vt 0.06707317 0.7770492
vt 0.03455285 0.7770492
vt 0.06910569 0.7803279
vt 0.101626 0.7803279
vt 0.101626 0.8327869
vt 0.06910569 0.8327869
vt 0.03455285 0.7803279
vt 0.06707317 0.7803279
vt 0.06707317 0.8327869
vt 0.03455285 0.8327869
vt 0.5182927 0.05573773
vt 0.550813 0.05573773
vt 0.550813 0.1081967
vt 0.5182927 0.1081967
vt 0.06910569 0.7245902
vt 0.101626 0.7245902
vt 0.101626 0.7770492
vt 0.06910569 0.7770492
vt 0.1036585 0.7245902
vt 0.1361789 0.7245902
vt 0.1361789 0.7770492
vt 0.1036585 0.7770492
vt 0 0.7245902
vt 0.03252032 0.7245902
vt 0.03252032 0.7770492
vt 0 0.7770492
vt 0.5528455 0.05573773
vt 0.5853658 0.05573773
vt 0.5853658 0.1081967
vt 0.5528455 0.1081967
vt 0.4837398 0.1114754
vt 0.5162601 0.1114754
vt 0.5162601 0.1639344
vt 0.4837398 0.1639344
vt 0.6565041 0.8360656
vt 0.6890244 0.8360656
vt 0.6890244 0.8885246
vt 0.6565041 0.8885246
vt 0.5873984 0.8360656
vt 0.6199187 0.8360656
vt 0.6199187 0.8885246
vt 0.5873984 0.8885246

# Normal
vn 0 0 -1

# Mesh description
g Level_1_mesh_0003

# Faces
f 1/1/1 2/2/1 3/3/1 4/4/1
f 5/5/1 6/6/1 7/7/1 8/8/1
f 9/5/1 10/6/1 11/7/1 12/8/1
f 13/5/1 14/6/1 15/7/1 16/8/1
f 17/5/1 18/6/1 19/7/1 20/8/1
f 21/5/1 22/6/1 23/7/1 24/8/1
f 25/5/1 26/6/1 27/7/1 28/8/1
f 29/5/1 30/6/1 31/7/1 32/8/1
f 33/5/1 34/6/1 35/7/1 36/8/1
f 37/5/1 38/6/1 39/7/1 40/8/1
f 41/5/1 42/6/1 43/7/1 44/8/1
f 45/5/1 46/6/1 47/7/1 48/8/1
f 49/5/1 50/6/1 51/7/1 52/8/1
f 53/5/1 54/6/1 55/7/1 56/8/1
f 57/5/1 58/6/1 59/7/1 60/8/1
f 61/5/1 62/6/1 63/7/1 64/8/1
f 65/5/1 66/6/1 67/7/1 68/8/1
f 69/5/1 70/6/1 71/7/1 72/8/1
f 73/5/1 74/6/1 75/7/1 76/8/1
f 77/9/1 78/10/1 79/11/1 80/12/1
f 81/5/1 82/6/1 83/7/1 84/8/1
f 85/5/1 86/6/1 87/7/1 88/8/1
f 89/5/1 90/6/1 91/7/1 92/8/1
f 93/5/1 94/6/1 95/7/1 96/8/1
f 97/9/1 98/10/1 99/11/1 100/12/1
f 101/5/1 102/6/1 103/7/1 104/8/1
f 105/5/1 106/6/1 107/7/1 108/8/1
f 109/5/1 110/6/1 111/7/1 112/8/1
f 113/5/1 114/6/1 115/7/1 116/8/1
f 117/13/1 118/14/1 119/15/1 120/16/1
f 121/13/1 122/14/1 123/15/1 124/16/1
f 125/13/1 126/14/1 127/15/1 128/16/1
f 129/5/1 130/6/1 131/7/1 132/8/1
f 133/5/1 134/6/1 135/7/1 136/8/1
f 137/5/1 138/6/1 139/7/1 140/8/1
f 141/5/1 142/6/1 143/7/1 144/8/1
f 145/5/1 146/6/1 147/7/1 148/8/1
f 149/5/1 150/6/1 151/7/1 152/8/1
f 153/5/1 154/6/1 155/7/1 156/8/1
f 157/17/1 158/18/1 159/19/1 160/20/1
f 161/21/1 162/22/1 163/23/1 164/24/1
f 165/25/1 166/26/1 167/27/1 168/28/1
f 169/29/1 170/30/1 171/31/1 172/32/1
f 173/33/1 174/34/1 175/35/1 176/36/1
f 177/25/1 178/26/1 179/27/1 180/28/1
f 181/37/1 182/38/1 183/39/1 184/40/1
f 185/41/1 186/42/1 187/43/1 188/44/1
f 189/45/1 190/46/1 191/47/1 192/48/1
f 193/49/1 194/50/1 195/51/1 196/52/1
f 197/21/1 198/22/1 199/23/1 200/24/1
f 201/53/1 202/54/1 203/55/1 204/56/1
f 205/53/1 206/54/1 207/55/1 208/56/1
f 209/57/1 210/58/1 211/59/1 212/60/1
f 213/25/1 214/26/1 215/27/1 216/28/1
f 217/25/1 218/26/1 219/27/1 220/28/1
f 221/49/1 222/50/1 223/51/1 224/52/1
f 225/21/1 226/22/1 227/23/1 228/24/1
f 229/25/1 230/26/1 231/27/1 232/28/1
f 233/25/1 234/26/1 235/27/1 236/28/1
f 237/61/1 238/62/1 239/63/1 240/64/1
f 241/65/1 242/66/1 243/67/1 244/68/1
f 245/69/1 246/70/1 247/71/1 248/72/1
f 249/49/1 250/50/1 251/51/1 252/52/1
f 253/21/1 254/22/1 255/23/1 256/24/1
f 257/57/1 258/58/1 259/59/1 260/60/1
f 261/53/1 262/54/1 263/55/1 264/56/1
f 265/25/1 266/26/1 267/27/1 268/28/1
f 269/25/1 270/26/1 271/27/1 272/28/1
f 273/37/1 274/38/1 275/39/1 276/40/1
f 277/49/1 278/50/1 279/51/1 280/52/1
f 281/21/1 282/22/1 283/23/1 284/24/1
f 285/25/1 286/26/1 287/27/1 288/28/1
f 289/73/1 290/74/1 291/75/1 292/76/1
f 293/25/1 294/26/1 295/27/1 296/28/1
f 297/77/1 298/78/1 299/79/1 300/80/1
f 301/49/1 302/50/1 303/51/1 304/52/1
f 305/21/1 306/22/1 307/23/1 308/24/1
f 309/53/1 310/54/1 311/55/1 312/56/1
f 313/57/1 314/58/1 315/59/1 316/60/1
f 317/25/1 318/26/1 319/27/1 320/28/1
f 321/25/1 322/26/1 323/27/1 324/28/1
f 325/61/1 326/62/1 327/63/1 328/64/1
f 329/69/1 330/70/1 331/71/1 332/72/1
f 333/49/1 334/50/1 335/51/1 336/52/1
f 337/21/1 338/22/1 339/23/1 340/24/1
f 341/25/1 342/26/1 343/27/1 344/28/1
f 345/25/1 346/26/1 347/27/1 348/28/1
f 349/49/1 350/50/1 351/51/1 352/52/1
f 353/21/1 354/22/1 355/23/1 356/24/1
f 357/49/1 358/50/1 359/51/1 360/52/1
f 361/21/1 362/22/1 363/23/1 364/24/1
f 365/49/1 366/50/1 367/51/1 368/52/1
f 369/21/1 370/22/1 371/23/1 372/24/1
f 373/49/1 374/50/1 375/51/1 376/52/1
f 377/21/1 378/22/1 379/23/1 380/24/1
f 381/73/1 382/74/1 383/75/1 384/76/1
f 385/65/1 386/66/1 387/67/1 388/68/1
f 389/49/1 390/50/1 391/51/1 392/52/1
f 393/21/1 394/22/1 395/23/1 396/24/1
f 397/77/1 398/78/1 399/79/1 400/80/1
f 401/81/1 402/82/1 403/83/1 404/84/1
f 405/37/1 406/38/1 407/39/1 408/40/1
f 409/77/1 410/78/1 411/79/1 412/80/1
f 413/73/1 414/74/1 415/75/1 416/76/1
f 417/85/1 418/86/1 419/87/1 420/88/1
f 421/61/1 422/62/1 423/63/1 424/64/1
f 425/49/1 426/50/1 427/51/1 428/52/1
f 429/21/1 430/22/1 431/23/1 432/24/1
f 433/89/1 434/90/1 435/91/1 436/92/1
f 437/93/1 438/94/1 439/95/1 440/96/1
f 441/97/1 442/98/1 443/99/1 444/100/1
f 445/65/1 446/66/1 447/67/1 448/68/1
f 449/49/1 450/50/1 451/51/1 452/52/1
f 453/21/1 454/22/1 455/23/1 456/24/1
f 457/101/1 458/102/1 459/103/1 460/104/1
f 461/73/1 462/74/1 463/75/1 464/76/1
f 465/77/1 466/78/1 467/79/1 468/80/1
f 469/65/1 470/66/1 471/67/1 472/68/1
f 473/49/1 474/50/1 475/51/1 476/52/1
f 477/21/1 478/22/1 479/23/1 480/24/1
f 481/29/1 482/30/1 483/31/1 484/32/1
f 485/65/1 486/66/1 487/67/1 488/68/1
f 489/93/1 490/94/1 491/95/1 492/96/1
f 493/69/1 494/70/1 495/71/1 496/72/1
f 497/61/1 498/62/1 499/63/1 500/64/1
f 501/77/1 502/78/1 503/79/1 504/80/1
f 505/49/1 506/50/1 507/51/1 508/52/1
f 509/21/1 510/22/1 511/23/1 512/24/1
f 513/93/1 514/94/1 515/95/1 516/96/1
f 517/85/1 518/86/1 519/87/1 520/88/1
f 521/49/1 522/50/1 523/51/1 524/52/1
f 525/21/1 526/22/1 527/23/1 528/24/1
f 529/77/1 530/78/1 531/79/1 532/80/1
f 533/73/1 534/74/1 535/75/1 536/76/1
f 537/89/1 538/90/1 539/91/1 540/92/1
f 541/69/1 542/70/1 543/71/1 544/72/1
f 545/49/1 546/50/1 547/51/1 548/52/1
f 549/21/1 550/22/1 551/23/1 552/24/1
f 553/81/1 554/82/1 555/83/1 556/84/1
f 557/49/1 558/50/1 559/51/1 560/52/1
f 561/105/1 562/106/1 563/107/1 564/108/1
f 565/5/1 566/6/1 567/7/1 568/8/1
f 569/5/1 570/6/1 571/7/1 572/8/1
f 573/5/1 574/6/1 575/7/1 576/8/1
f 577/5/1 578/6/1 579/7/1 580/8/1
f 581/5/1 582/6/1 583/7/1 584/8/1
f 585/5/1 586/6/1 587/7/1 588/8/1
f 589/5/1 590/6/1 591/7/1 592/8/1
f 593/5/1 594/6/1 595/7/1 596/8/1
f 597/5/1 598/6/1 599/7/1 600/8/1
f 601/5/1 602/6/1 603/7/1 604/8/1
f 605/5/1 606/6/1 607/7/1 608/8/1
f 609/5/1 610/6/1 611/7/1 612/8/1
f 613/5/1 614/6/1 615/7/1 616/8/1
f 617/5/1 618/6/1 619/7/1 620/8/1
f 621/5/1 622/6/1 623/7/1 624/8/1
f 625/5/1 626/6/1 627/7/1 628/8/1
f 629/5/1 630/6/1 631/7/1 632/8/1
f 633/5/1 634/6/1 635/7/1 636/8/1
f 637/5/1 638/6/1 639/7/1 640/8/1
f 641/5/1 642/6/1 643/7/1 644/8/1
f 645/5/1 646/6/1 647/7/1 648/8/1
f 649/5/1 650/6/1 651/7/1 652/8/1
f 653/5/1 654/6/1 655/7/1 656/8/1
f 657/5/1 658/6/1 659/7/1 660/8/1
f 661/5/1 662/6/1 663/7/1 664/8/1
f 665/5/1 666/6/1 667/7/1 668/8/1
f 669/5/1 670/6/1 671/7/1 672/8/1
f 673/5/1 674/6/1 675/7/1 676/8/1
f 677/5/1 678/6/1 679/7/1 680/8/1
f 681/5/1 682/6/1 683/7/1 684/8/1
f 685/5/1 686/6/1 687/7/1 688/8/1
f 689/5/1 690/6/1 691/7/1 692/8/1
f 693/5/1 694/6/1 695/7/1 696/8/1
f 697/5/1 698/6/1 699/7/1 700/8/1
f 701/5/1 702/6/1 703/7/1 704/8/1
f 705/5/1 706/6/1 707/7/1 708/8/1
f 709/5/1 710/6/1 711/7/1 712/8/1
f 713/5/1 714/6/1 715/7/1 716/8/1
f 717/109/1 718/110/1 719/111/1 720/112/1

