# Tiled2Unity generated file. Do not modify by hand.
# Wavefront file for 'Level_1_mesh_0003.obj'

# Vertices (Count = 620)
v -624 -16 0
v -640 -16 0
v -640 0 0
v -624 0 0
v -608 -16 0
v -624 -16 0
v -624 0 0
v -608 0 0
v -592 -16 0
v -608 -16 0
v -608 0 0
v -592 0 0
v -576 -16 0
v -592 -16 0
v -592 0 0
v -576 0 0
v -560 -16 0
v -576 -16 0
v -576 0 0
v -560 0 0
v -544 -16 0
v -560 -16 0
v -560 0 0
v -544 0 0
v -528 -16 0
v -544 -16 0
v -544 0 0
v -528 0 0
v -512 -16 0
v -528 -16 0
v -528 0 0
v -512 0 0
v -496 -16 0
v -512 -16 0
v -512 0 0
v -496 0 0
v -480 -16 0
v -496 -16 0
v -496 0 0
v -480 0 0
v -464 -16 0
v -480 -16 0
v -480 0 0
v -464 0 0
v -448 -16 0
v -464 -16 0
v -464 0 0
v -448 0 0
v -432 -16 0
v -448 -16 0
v -448 0 0
v -432 0 0
v -416 -16 0
v -432 -16 0
v -432 0 0
v -416 0 0
v -400 -16 0
v -416 -16 0
v -416 0 0
v -400 0 0
v -384 -16 0
v -400 -16 0
v -400 0 0
v -384 0 0
v -368 -16 0
v -384 -16 0
v -384 0 0
v -368 0 0
v -352 -16 0
v -368 -16 0
v -368 0 0
v -352 0 0
v -336 -16 0
v -352 -16 0
v -352 0 0
v -336 0 0
v -320 -16 0
v -336 -16 0
v -336 0 0
v -320 0 0
v -304 -16 0
v -320 -16 0
v -320 0 0
v -304 0 0
v -288 -16 0
v -304 -16 0
v -304 0 0
v -288 0 0
v -272 -16 0
v -288 -16 0
v -288 0 0
v -272 0 0
v -256 -16 0
v -272 -16 0
v -272 0 0
v -256 0 0
v -240 -16 0
v -256 -16 0
v -256 0 0
v -240 0 0
v -224 -16 0
v -240 -16 0
v -240 0 0
v -224 0 0
v -208 -16 0
v -224 -16 0
v -224 0 0
v -208 0 0
v -192 -16 0
v -208 -16 0
v -208 0 0
v -192 0 0
v -176 -16 0
v -192 -16 0
v -192 0 0
v -176 0 0
v -160 -16 0
v -176 -16 0
v -176 0 0
v -160 0 0
v -144 -16 0
v -160 -16 0
v -160 0 0
v -144 0 0
v -128 -16 0
v -144 -16 0
v -144 0 0
v -128 0 0
v -112 -16 0
v -128 -16 0
v -128 0 0
v -112 0 0
v -96 -16 0
v -112 -16 0
v -112 0 0
v -96 0 0
v -80 -16 0
v -96 -16 0
v -96 0 0
v -80 0 0
v -64 -16 0
v -80 -16 0
v -80 0 0
v -64 0 0
v -48 -16 0
v -64 -16 0
v -64 0 0
v -48 0 0
v -32 -16 0
v -48 -16 0
v -48 0 0
v -32 0 0
v -16 -16 0
v -32 -16 0
v -32 0 0
v -16 0 0
v 0 -16 0
v -16 -16 0
v -16 0 0
v 0 0 0
v -624 -32 0
v -640 -32 0
v -640 -16 0
v -624 -16 0
v -320 -32 0
v -336 -32 0
v -336 -16 0
v -320 -16 0
v -288 -32 0
v -304 -32 0
v -304 -16 0
v -288 -16 0
v -256 -32 0
v -272 -32 0
v -272 -16 0
v -256 -16 0
v -240 -32 0
v -256 -32 0
v -256 -16 0
v -240 -16 0
v -192 -32 0
v -208 -32 0
v -208 -16 0
v -192 -16 0
v -64 -32 0
v -80 -32 0
v -80 -16 0
v -64 -16 0
v -16 -32 0
v -32 -32 0
v -32 -16 0
v -16 -16 0
v 0 -32 0
v -16 -32 0
v -16 -16 0
v 0 -16 0
v -624 -48 0
v -640 -48 0
v -640 -32 0
v -624 -32 0
v -320 -48 0
v -336 -48 0
v -336 -32 0
v -320 -32 0
v -240 -48 0
v -256 -48 0
v -256 -32 0
v -240 -32 0
v 0 -48 0
v -16 -48 0
v -16 -32 0
v 0 -32 0
v -624 -64 0
v -640 -64 0
v -640 -48 0
v -624 -48 0
v -320 -64 0
v -336 -64 0
v -336 -48 0
v -320 -48 0
v -240 -64 0
v -256 -64 0
v -256 -48 0
v -240 -48 0
v -192 -64 0
v -208 -64 0
v -208 -48 0
v -192 -48 0
v -96 -64 0
v -112 -64 0
v -112 -48 0
v -96 -48 0
v 0 -64 0
v -16 -64 0
v -16 -48 0
v 0 -48 0
v -624 -80 0
v -640 -80 0
v -640 -64 0
v -624 -64 0
v -320 -80 0
v -336 -80 0
v -336 -64 0
v -320 -64 0
v -240 -80 0
v -256 -80 0
v -256 -64 0
v -240 -64 0
v -16 -80 0
v -32 -80 0
v -32 -64 0
v -16 -64 0
v 0 -80 0
v -16 -80 0
v -16 -64 0
v 0 -64 0
v -624 -96 0
v -640 -96 0
v -640 -80 0
v -624 -80 0
v -320 -96 0
v -336 -96 0
v -336 -80 0
v -320 -80 0
v -256 -96 0
v -272 -96 0
v -272 -80 0
v -256 -80 0
v -240 -96 0
v -256 -96 0
v -256 -80 0
v -240 -80 0
v -208 -96 0
v -224 -96 0
v -224 -80 0
v -208 -80 0
v 0 -96 0
v -16 -96 0
v -16 -80 0
v 0 -80 0
v -624 -112 0
v -640 -112 0
v -640 -96 0
v -624 -96 0
v -320 -112 0
v -336 -112 0
v -336 -96 0
v -320 -96 0
v -240 -112 0
v -256 -112 0
v -256 -96 0
v -240 -96 0
v -96 -112 0
v -112 -112 0
v -112 -96 0
v -96 -96 0
v -32 -112 0
v -48 -112 0
v -48 -96 0
v -32 -96 0
v 0 -112 0
v -16 -112 0
v -16 -96 0
v 0 -96 0
v -624 -128 0
v -640 -128 0
v -640 -112 0
v -624 -112 0
v -320 -128 0
v -336 -128 0
v -336 -112 0
v -320 -112 0
v -240 -128 0
v -256 -128 0
v -256 -112 0
v -240 -112 0
v 0 -128 0
v -16 -128 0
v -16 -112 0
v 0 -112 0
v -624 -144 0
v -640 -144 0
v -640 -128 0
v -624 -128 0
v 0 -144 0
v -16 -144 0
v -16 -128 0
v 0 -128 0
v -624 -160 0
v -640 -160 0
v -640 -144 0
v -624 -144 0
v 0 -160 0
v -16 -160 0
v -16 -144 0
v 0 -144 0
v -624 -176 0
v -640 -176 0
v -640 -160 0
v -624 -160 0
v 0 -176 0
v -16 -176 0
v -16 -160 0
v 0 -160 0
v -624 -192 0
v -640 -192 0
v -640 -176 0
v -624 -176 0
v 0 -192 0
v -16 -192 0
v -16 -176 0
v 0 -176 0
v -624 -208 0
v -640 -208 0
v -640 -192 0
v -624 -192 0
v -288 -208 0
v -304 -208 0
v -304 -192 0
v -288 -192 0
v -272 -208 0
v -288 -208 0
v -288 -192 0
v -272 -192 0
v -208 -208 0
v -224 -208 0
v -224 -192 0
v -208 -192 0
v -80 -208 0
v -96 -208 0
v -96 -192 0
v -80 -192 0
v -16 -208 0
v -32 -208 0
v -32 -192 0
v -16 -192 0
v 0 -208 0
v -16 -208 0
v -16 -192 0
v 0 -192 0
v -624 -224 0
v -640 -224 0
v -640 -208 0
v -624 -208 0
v 0 -224 0
v -16 -224 0
v -16 -208 0
v 0 -208 0
v -624 -240 0
v -640 -240 0
v -640 -224 0
v -624 -224 0
v -352 -240 0
v -368 -240 0
v -368 -224 0
v -352 -224 0
v -336 -240 0
v -352 -240 0
v -352 -224 0
v -336 -224 0
v 0 -240 0
v -16 -240 0
v -16 -224 0
v 0 -224 0
v -624 -256 0
v -640 -256 0
v -640 -240 0
v -624 -240 0
v -352 -256 0
v -368 -256 0
v -368 -240 0
v -352 -240 0
v -272 -256 0
v -288 -256 0
v -288 -240 0
v -272 -240 0
v -32 -256 0
v -48 -256 0
v -48 -240 0
v -32 -240 0
v 0 -256 0
v -16 -256 0
v -16 -240 0
v 0 -240 0
v -624 -272 0
v -640 -272 0
v -640 -256 0
v -624 -256 0
v -256 -272 0
v -272 -272 0
v -272 -256 0
v -256 -256 0
v -208 -272 0
v -224 -272 0
v -224 -256 0
v -208 -256 0
v 0 -272 0
v -16 -272 0
v -16 -256 0
v 0 -256 0
v -624 -288 0
v -640 -288 0
v -640 -272 0
v -624 -272 0
v -80 -288 0
v -96 -288 0
v -96 -272 0
v -80 -272 0
v 0 -288 0
v -16 -288 0
v -16 -272 0
v 0 -272 0
v -624 -304 0
v -640 -304 0
v -640 -288 0
v -624 -288 0
v 0 -304 0
v -16 -304 0
v -16 -288 0
v 0 -288 0
v -624 -320 0
v -640 -320 0
v -640 -304 0
v -624 -304 0
v -608 -320 0
v -624 -320 0
v -624 -304 0
v -608 -304 0
v -592 -320 0
v -608 -320 0
v -608 -304 0
v -592 -304 0
v -576 -320 0
v -592 -320 0
v -592 -304 0
v -576 -304 0
v -560 -320 0
v -576 -320 0
v -576 -304 0
v -560 -304 0
v -544 -320 0
v -560 -320 0
v -560 -304 0
v -544 -304 0
v -528 -320 0
v -544 -320 0
v -544 -304 0
v -528 -304 0
v -512 -320 0
v -528 -320 0
v -528 -304 0
v -512 -304 0
v -496 -320 0
v -512 -320 0
v -512 -304 0
v -496 -304 0
v -480 -320 0
v -496 -320 0
v -496 -304 0
v -480 -304 0
v -464 -320 0
v -480 -320 0
v -480 -304 0
v -464 -304 0
v -448 -320 0
v -464 -320 0
v -464 -304 0
v -448 -304 0
v -432 -320 0
v -448 -320 0
v -448 -304 0
v -432 -304 0
v -416 -320 0
v -432 -320 0
v -432 -304 0
v -416 -304 0
v -400 -320 0
v -416 -320 0
v -416 -304 0
v -400 -304 0
v -384 -320 0
v -400 -320 0
v -400 -304 0
v -384 -304 0
v -368 -320 0
v -384 -320 0
v -384 -304 0
v -368 -304 0
v -352 -320 0
v -368 -320 0
v -368 -304 0
v -352 -304 0
v -336 -320 0
v -352 -320 0
v -352 -304 0
v -336 -304 0
v -320 -320 0
v -336 -320 0
v -336 -304 0
v -320 -304 0
v -304 -320 0
v -320 -320 0
v -320 -304 0
v -304 -304 0
v -288 -320 0
v -304 -320 0
v -304 -304 0
v -288 -304 0
v -272 -320 0
v -288 -320 0
v -288 -304 0
v -272 -304 0
v -256 -320 0
v -272 -320 0
v -272 -304 0
v -256 -304 0
v -240 -320 0
v -256 -320 0
v -256 -304 0
v -240 -304 0
v -224 -320 0
v -240 -320 0
v -240 -304 0
v -224 -304 0
v -208 -320 0
v -224 -320 0
v -224 -304 0
v -208 -304 0
v -192 -320 0
v -208 -320 0
v -208 -304 0
v -192 -304 0
v -176 -320 0
v -192 -320 0
v -192 -304 0
v -176 -304 0
v -160 -320 0
v -176 -320 0
v -176 -304 0
v -160 -304 0
v -144 -320 0
v -160 -320 0
v -160 -304 0
v -144 -304 0
v -128 -320 0
v -144 -320 0
v -144 -304 0
v -128 -304 0
v -112 -320 0
v -128 -320 0
v -128 -304 0
v -112 -304 0
v -96 -320 0
v -112 -320 0
v -112 -304 0
v -96 -304 0
v -80 -320 0
v -96 -320 0
v -96 -304 0
v -80 -304 0
v -64 -320 0
v -80 -320 0
v -80 -304 0
v -64 -304 0
v -48 -320 0
v -64 -320 0
v -64 -304 0
v -48 -304 0
v -32 -320 0
v -48 -320 0
v -48 -304 0
v -32 -304 0
v -16 -320 0
v -32 -320 0
v -32 -304 0
v -16 -304 0
v 0 -320 0
v -16 -320 0
v -16 -304 0
v 0 -304 0

# Texture cooridinates (Count = 84)
vt 0.6565041 0.947541
vt 0.6890244 0.947541
vt 0.6890244 1
vt 0.6565041 1
vt 0.6219512 0.947541
vt 0.6544715 0.947541
vt 0.6544715 1
vt 0.6219512 1
vt 0.6219512 0.7803279
vt 0.6544715 0.7803279
vt 0.6544715 0.8327869
vt 0.6219512 0.8327869
vt 0 0.557377
vt 0.03252032 0.557377
vt 0.03252032 0.6098361
vt 0 0.6098361
vt 0.5873984 0.947541
vt 0.6199187 0.947541
vt 0.6199187 1
vt 0.5873984 1
vt 0.6565041 0.8918033
vt 0.6890244 0.8918033
vt 0.6890244 0.9442623
vt 0.6565041 0.9442623
vt 0.6219512 0.8918033
vt 0.6544715 0.8918033
vt 0.6544715 0.9442623
vt 0.6219512 0.9442623
vt 0.5182927 0
vt 0.550813 0
vt 0.550813 0.052459
vt 0.5182927 0.052459
vt 0.1036585 0.8360656
vt 0.1361789 0.8360656
vt 0.1361789 0.8885246
vt 0.1036585 0.8885246
vt 0 0.7803279
vt 0.03252032 0.7803279
vt 0.03252032 0.8327869
vt 0 0.8327869
vt 0.03455285 0.8360656
vt 0.06707317 0.8360656
vt 0.06707317 0.8885246
vt 0.03455285 0.8885246
vt 0.449187 0
vt 0.4817073 0
vt 0.4817073 0.052459
vt 0.449187 0.052459
vt 0.5873984 0.8918033
vt 0.6199187 0.8918033
vt 0.6199187 0.9442623
vt 0.5873984 0.9442623
vt 0.1727642 0.8360656
vt 0.2052846 0.8360656
vt 0.2052846 0.8885246
vt 0.1727642 0.8885246
vt 0.03455285 0.7245902
vt 0.06707317 0.7245902
vt 0.06707317 0.7770492
vt 0.03455285 0.7770492
vt 0.06910569 0.7803279
vt 0.101626 0.7803279
vt 0.101626 0.8327869
vt 0.06910569 0.8327869
vt 0.03455285 0.7803279
vt 0.06707317 0.7803279
vt 0.06707317 0.8327869
vt 0.03455285 0.8327869
vt 0.06910569 0.7245902
vt 0.101626 0.7245902
vt 0.101626 0.7770492
vt 0.06910569 0.7770492
vt 0 0.7245902
vt 0.03252032 0.7245902
vt 0.03252032 0.7770492
vt 0 0.7770492
vt 0.6565041 0.8360656
vt 0.6890244 0.8360656
vt 0.6890244 0.8885246
vt 0.6565041 0.8885246
vt 0.5873984 0.8360656
vt 0.6199187 0.8360656
vt 0.6199187 0.8885246
vt 0.5873984 0.8885246

# Normal
vn 0 0 -1

# Mesh description
g Level_1_mesh_0003

# Faces
f 1/1/1 2/2/1 3/3/1 4/4/1
f 5/5/1 6/6/1 7/7/1 8/8/1
f 9/5/1 10/6/1 11/7/1 12/8/1
f 13/5/1 14/6/1 15/7/1 16/8/1
f 17/5/1 18/6/1 19/7/1 20/8/1
f 21/5/1 22/6/1 23/7/1 24/8/1
f 25/5/1 26/6/1 27/7/1 28/8/1
f 29/5/1 30/6/1 31/7/1 32/8/1
f 33/5/1 34/6/1 35/7/1 36/8/1
f 37/5/1 38/6/1 39/7/1 40/8/1
f 41/5/1 42/6/1 43/7/1 44/8/1
f 45/5/1 46/6/1 47/7/1 48/8/1
f 49/5/1 50/6/1 51/7/1 52/8/1
f 53/5/1 54/6/1 55/7/1 56/8/1
f 57/5/1 58/6/1 59/7/1 60/8/1
f 61/5/1 62/6/1 63/7/1 64/8/1
f 65/5/1 66/6/1 67/7/1 68/8/1
f 69/5/1 70/6/1 71/7/1 72/8/1
f 73/5/1 74/6/1 75/7/1 76/8/1
f 77/9/1 78/10/1 79/11/1 80/12/1
f 81/5/1 82/6/1 83/7/1 84/8/1
f 85/5/1 86/6/1 87/7/1 88/8/1
f 89/5/1 90/6/1 91/7/1 92/8/1
f 93/5/1 94/6/1 95/7/1 96/8/1
f 97/9/1 98/10/1 99/11/1 100/12/1
f 101/5/1 102/6/1 103/7/1 104/8/1
f 105/5/1 106/6/1 107/7/1 108/8/1
f 109/5/1 110/6/1 111/7/1 112/8/1
f 113/5/1 114/6/1 115/7/1 116/8/1
f 117/13/1 118/14/1 119/15/1 120/16/1
f 121/13/1 122/14/1 123/15/1 124/16/1
f 125/13/1 126/14/1 127/15/1 128/16/1
f 129/5/1 130/6/1 131/7/1 132/8/1
f 133/5/1 134/6/1 135/7/1 136/8/1
f 137/5/1 138/6/1 139/7/1 140/8/1
f 141/5/1 142/6/1 143/7/1 144/8/1
f 145/5/1 146/6/1 147/7/1 148/8/1
f 149/5/1 150/6/1 151/7/1 152/8/1
f 153/5/1 154/6/1 155/7/1 156/8/1
f 157/17/1 158/18/1 159/19/1 160/20/1
f 161/21/1 162/22/1 163/23/1 164/24/1
f 165/25/1 166/26/1 167/27/1 168/28/1
f 169/29/1 170/30/1 171/31/1 172/32/1
f 173/33/1 174/34/1 175/35/1 176/36/1
f 177/25/1 178/26/1 179/27/1 180/28/1
f 181/37/1 182/38/1 183/39/1 184/40/1
f 185/41/1 186/42/1 187/43/1 188/44/1
f 189/45/1 190/46/1 191/47/1 192/48/1
f 193/49/1 194/50/1 195/51/1 196/52/1
f 197/21/1 198/22/1 199/23/1 200/24/1
f 201/25/1 202/26/1 203/27/1 204/28/1
f 205/25/1 206/26/1 207/27/1 208/28/1
f 209/49/1 210/50/1 211/51/1 212/52/1
f 213/21/1 214/22/1 215/23/1 216/24/1
f 217/25/1 218/26/1 219/27/1 220/28/1
f 221/25/1 222/26/1 223/27/1 224/28/1
f 225/53/1 226/54/1 227/55/1 228/56/1
f 229/57/1 230/58/1 231/59/1 232/60/1
f 233/49/1 234/50/1 235/51/1 236/52/1
f 237/21/1 238/22/1 239/23/1 240/24/1
f 241/25/1 242/26/1 243/27/1 244/28/1
f 245/25/1 246/26/1 247/27/1 248/28/1
f 249/37/1 250/38/1 251/39/1 252/40/1
f 253/49/1 254/50/1 255/51/1 256/52/1
f 257/21/1 258/22/1 259/23/1 260/24/1
f 261/25/1 262/26/1 263/27/1 264/28/1
f 265/61/1 266/62/1 267/63/1 268/64/1
f 269/25/1 270/26/1 271/27/1 272/28/1
f 273/65/1 274/66/1 275/67/1 276/68/1
f 277/49/1 278/50/1 279/51/1 280/52/1
f 281/21/1 282/22/1 283/23/1 284/24/1
f 285/25/1 286/26/1 287/27/1 288/28/1
f 289/25/1 290/26/1 291/27/1 292/28/1
f 293/53/1 294/54/1 295/55/1 296/56/1
f 297/57/1 298/58/1 299/59/1 300/60/1
f 301/49/1 302/50/1 303/51/1 304/52/1
f 305/21/1 306/22/1 307/23/1 308/24/1
f 309/25/1 310/26/1 311/27/1 312/28/1
f 313/25/1 314/26/1 315/27/1 316/28/1
f 317/49/1 318/50/1 319/51/1 320/52/1
f 321/21/1 322/22/1 323/23/1 324/24/1
f 325/49/1 326/50/1 327/51/1 328/52/1
f 329/21/1 330/22/1 331/23/1 332/24/1
f 333/49/1 334/50/1 335/51/1 336/52/1
f 337/21/1 338/22/1 339/23/1 340/24/1
f 341/49/1 342/50/1 343/51/1 344/52/1
f 345/21/1 346/22/1 347/23/1 348/24/1
f 349/49/1 350/50/1 351/51/1 352/52/1
f 353/21/1 354/22/1 355/23/1 356/24/1
f 357/37/1 358/38/1 359/39/1 360/40/1
f 361/65/1 362/66/1 363/67/1 364/68/1
f 365/61/1 366/62/1 367/63/1 368/64/1
f 369/69/1 370/70/1 371/71/1 372/72/1
f 373/53/1 374/54/1 375/55/1 376/56/1
f 377/49/1 378/50/1 379/51/1 380/52/1
f 381/21/1 382/22/1 383/23/1 384/24/1
f 385/49/1 386/50/1 387/51/1 388/52/1
f 389/21/1 390/22/1 391/23/1 392/24/1
f 393/61/1 394/62/1 395/63/1 396/64/1
f 397/65/1 398/66/1 399/67/1 400/68/1
f 401/49/1 402/50/1 403/51/1 404/52/1
f 405/21/1 406/22/1 407/23/1 408/24/1
f 409/57/1 410/58/1 411/59/1 412/60/1
f 413/53/1 414/54/1 415/55/1 416/56/1
f 417/65/1 418/66/1 419/67/1 420/68/1
f 421/49/1 422/50/1 423/51/1 424/52/1
f 425/21/1 426/22/1 427/23/1 428/24/1
f 429/73/1 430/74/1 431/75/1 432/76/1
f 433/69/1 434/70/1 435/71/1 436/72/1
f 437/49/1 438/50/1 439/51/1 440/52/1
f 441/21/1 442/22/1 443/23/1 444/24/1
f 445/57/1 446/58/1 447/59/1 448/60/1
f 449/49/1 450/50/1 451/51/1 452/52/1
f 453/21/1 454/22/1 455/23/1 456/24/1
f 457/49/1 458/50/1 459/51/1 460/52/1
f 461/77/1 462/78/1 463/79/1 464/80/1
f 465/5/1 466/6/1 467/7/1 468/8/1
f 469/5/1 470/6/1 471/7/1 472/8/1
f 473/5/1 474/6/1 475/7/1 476/8/1
f 477/5/1 478/6/1 479/7/1 480/8/1
f 481/5/1 482/6/1 483/7/1 484/8/1
f 485/5/1 486/6/1 487/7/1 488/8/1
f 489/5/1 490/6/1 491/7/1 492/8/1
f 493/5/1 494/6/1 495/7/1 496/8/1
f 497/5/1 498/6/1 499/7/1 500/8/1
f 501/5/1 502/6/1 503/7/1 504/8/1
f 505/5/1 506/6/1 507/7/1 508/8/1
f 509/5/1 510/6/1 511/7/1 512/8/1
f 513/5/1 514/6/1 515/7/1 516/8/1
f 517/5/1 518/6/1 519/7/1 520/8/1
f 521/5/1 522/6/1 523/7/1 524/8/1
f 525/5/1 526/6/1 527/7/1 528/8/1
f 529/5/1 530/6/1 531/7/1 532/8/1
f 533/5/1 534/6/1 535/7/1 536/8/1
f 537/5/1 538/6/1 539/7/1 540/8/1
f 541/5/1 542/6/1 543/7/1 544/8/1
f 545/5/1 546/6/1 547/7/1 548/8/1
f 549/5/1 550/6/1 551/7/1 552/8/1
f 553/5/1 554/6/1 555/7/1 556/8/1
f 557/5/1 558/6/1 559/7/1 560/8/1
f 561/5/1 562/6/1 563/7/1 564/8/1
f 565/5/1 566/6/1 567/7/1 568/8/1
f 569/5/1 570/6/1 571/7/1 572/8/1
f 573/5/1 574/6/1 575/7/1 576/8/1
f 577/5/1 578/6/1 579/7/1 580/8/1
f 581/5/1 582/6/1 583/7/1 584/8/1
f 585/5/1 586/6/1 587/7/1 588/8/1
f 589/5/1 590/6/1 591/7/1 592/8/1
f 593/5/1 594/6/1 595/7/1 596/8/1
f 597/5/1 598/6/1 599/7/1 600/8/1
f 601/5/1 602/6/1 603/7/1 604/8/1
f 605/5/1 606/6/1 607/7/1 608/8/1
f 609/5/1 610/6/1 611/7/1 612/8/1
f 613/5/1 614/6/1 615/7/1 616/8/1
f 617/81/1 618/82/1 619/83/1 620/84/1

