# Tiled2Unity generated file. Do not modify by hand.
# Wavefront file for 'Level-1_mesh_0003.obj'

# Vertices (Count = 12)
v -160 -80 0
v -176 -80 0
v -176 -64 0
v -160 -64 0
v -144 -80 0
v -160 -80 0
v -160 -64 0
v -144 -64 0
v -128 -80 0
v -144 -80 0
v -144 -64 0
v -128 -64 0

# Texture cooridinates (Count = 4)
vt 0.9307851 0.5494297
vt 0.947314 0.5494297
vt 0.947314 0.5798479
vt 0.9307851 0.5798479

# Normal
vn 0 0 -1

# Mesh description
g Level-1_mesh_0003

# Faces
f 1/1/1 2/2/1 3/3/1 4/4/1
f 5/1/1 6/2/1 7/3/1 8/4/1
f 9/1/1 10/2/1 11/3/1 12/4/1

