# Tiled2Unity generated file. Do not modify by hand.
# Wavefront file for 'Level-1_mesh_0002.obj'

# Vertices (Count = 8)
v -32 -16 0
v -48 -16 0
v -48 0 0
v -32 0 0
v 0 -64 0
v -16 -64 0
v -16 -48 0
v 0 -48 0

# Texture cooridinates (Count = 8)
vt 0.1036585 0.8360656
vt 0.1361789 0.8360656
vt 0.1361789 0.8885246
vt 0.1036585 0.8885246
vt 0.06910569 0.7245902
vt 0.101626 0.7245902
vt 0.101626 0.7770492
vt 0.06910569 0.7770492

# Normal
vn 0 0 -1

# Mesh description
g Level-1_mesh_0002

# Faces
f 1/1/1 2/2/1 3/3/1 4/4/1
f 5/5/1 6/6/1 7/7/1 8/8/1

